<?xml version="1.0" standalone="no"?>
<!DOCTYPE svg PUBLIC "-//W3C//DTD SVG 20010904//EN"
 "http://www.w3.org/TR/2001/REC-SVG-20010904/DTD/svg10.dtd">
<svg version="1.0" xmlns="http://www.w3.org/2000/svg"
 width="200.000000pt" height="188.000000pt" viewBox="0 0 200.000000 188.000000"
 preserveAspectRatio="xMidYMid meet">

<g transform="translate(0.000000,188.000000) scale(0.100000,-0.100000)"
fill="#000000" stroke="none">
<path d="M786 1770 c-302 -64 -559 -312 -636 -616 -84 -326 25 -678 273 -885
155 -130 346 -199 552 -199 329 0 617 169 762 447 64 122 92 219 99 348 11
183 -29 352 -120 501 -49 80 -153 212 -168 213 -4 1 -31 19 -60 41 -186 142
-460 201 -702 150z m342 -16 c255 -52 467 -205 585 -425 137 -253 140 -527 7
-791 -109 -217 -329 -382 -581 -433 -65 -14 -112 -16 -204 -12 -106 5 -133 11
-232 45 -132 47 -222 104 -320 202 -199 200 -284 509 -217 785 30 124 102 268
184 364 82 98 254 208 383 246 130 38 272 44 395 19z"/>
<path d="M875 1729 c-164 -23 -324 -100 -440 -210 -171 -163 -255 -352 -255
-577 0 -297 127 -539 367 -700 113 -75 287 -132 403 -131 230 1 460 93 608
241 106 107 169 217 212 373 31 111 31 287 1 400 -72 270 -264 475 -529 566
-133 46 -237 57 -367 38z m335 -44 c287 -91 487 -307 551 -595 87 -392 -135
-789 -512 -914 -294 -98 -590 -36 -808 169 -127 120 -198 256 -236 449 -53
269 61 579 278 751 158 126 314 176 527 170 91 -2 133 -8 200 -30z"/>
<path d="M794 1567 c-3 -8 -4 -20 -2 -28 2 -7 -7 -18 -19 -24 -29 -12 -29 -25
-2 -32 16 -5 19 -11 14 -33 -7 -34 7 -46 29 -25 10 10 24 13 41 9 21 -5 25 -3
25 14 0 12 9 23 20 27 24 8 26 21 4 33 -12 6 -15 18 -12 36 6 28 -9 35 -29 15
-9 -9 -18 -8 -38 5 -21 14 -26 14 -31 3z m79 -56 c11 -44 -55 -72 -69 -29 -4
13 -2 24 5 26 6 2 11 9 11 16 0 20 47 7 53 -13z"/>
<path d="M1226 1458 c-30 -34 -53 -65 -51 -68 2 -4 22 -12 43 -20 38 -12 42
-11 77 16 20 15 41 37 45 48 12 33 -22 86 -55 86 -2 0 -28 -28 -59 -62z m89
10 c0 -8 -15 -31 -33 -52 -23 -27 -36 -35 -47 -28 -13 7 -10 16 22 55 37 46
58 55 58 25z"/>
<path d="M530 1451 l-25 -20 55 -59 c30 -33 60 -60 66 -61 14 -1 44 31 44 47
0 15 -5 15 -30 0 -29 -19 -50 4 -27 30 19 21 11 38 -9 21 -8 -6 -21 -9 -29 -5
-17 6 -21 36 -5 36 6 0 10 7 10 15 0 20 -20 19 -50 -4z"/>
<path d="M1356 1362 c-37 -25 -63 -48 -56 -50 6 -2 17 1 23 7 16 16 47 14 47
-3 0 -8 -4 -18 -10 -21 -14 -9 -13 -48 1 -43 6 2 31 35 54 73 62 102 49 110
-59 37z m48 -7 c-6 -16 -24 -21 -24 -7 0 11 11 22 21 22 5 0 6 -7 3 -15z"/>
<path d="M958 1373 c-4 -40 -6 -70 -7 -105 -1 -48 -19 -49 -50 -3 -30 44 -41
44 -41 2 0 -42 28 -70 61 -62 20 4 27 -1 43 -32 18 -38 18 -38 -1 -20 -11 9
-27 17 -36 17 -19 0 -23 -25 -7 -35 7 -4 7 -11 2 -18 -20 -26 -22 -80 -5 -106
16 -25 16 -26 -2 -11 -45 35 -63 64 -53 83 6 13 6 23 -3 33 -10 12 -8 18 10
30 l22 16 -32 29 c-42 37 -62 39 -49 3 13 -32 2 -104 -15 -104 -9 0 -12 11 -8
40 5 32 3 40 -11 40 -11 0 -18 12 -22 39 -7 43 -20 69 -30 59 -5 -6 -8 -20
-13 -87 -1 -10 -10 -12 -36 -8 -19 3 -37 2 -39 -2 -8 -12 51 -51 77 -51 14 0
30 -7 37 -15 14 -16 7 -45 -11 -45 -8 0 -8 4 1 15 16 20 6 19 -28 -2 -15 -9
-28 -18 -30 -19 -1 -1 -4 -10 -6 -20 -8 -40 -47 -93 -74 -99 -15 -3 -36 -13
-47 -21 -17 -13 -18 -16 -5 -24 32 -20 69 -11 85 20 15 30 38 39 50 20 3 -5 0
-10 -8 -10 -17 0 -27 -21 -27 -55 0 -34 10 -55 26 -55 10 0 14 14 14 51 0 45
2 50 15 39 8 -7 15 -21 15 -31 0 -11 9 -27 20 -36 11 -10 20 -28 20 -40 0 -61
50 12 59 87 l6 45 48 -2 c58 -2 65 -7 43 -28 -19 -19 -20 -29 -5 -57 6 -12 12
-47 14 -79 1 -52 -2 -62 -27 -89 -27 -30 -56 -36 -50 -11 3 14 -25 15 -33 1
-4 -6 -14 -1 -25 12 l-18 23 -7 -28 c-8 -31 -49 -57 -90 -57 -29 0 -31 -7 -7
-36 13 -16 26 -20 53 -16 22 2 49 -3 68 -12 26 -14 71 -22 161 -27 17 -1 143
17 215 30 28 6 71 10 97 10 38 1 52 6 72 28 40 43 19 54 -108 56 -96 2 -106 4
-106 21 0 14 -5 17 -22 11 -40 -12 -78 -18 -78 -11 0 15 29 62 48 80 19 17 20
20 6 42 -15 22 -17 23 -41 7 l-26 -17 7 49 c5 29 21 68 42 99 46 69 47 104 1
51 -33 -38 -57 -41 -57 -9 0 9 -6 22 -14 30 -30 30 6 77 109 139 52 32 66 36
103 31 37 -5 47 -2 68 19 46 46 24 55 -50 19 -37 -18 -42 -12 -26 26 7 17 9
34 5 38 -10 10 -65 -58 -65 -80 0 -9 -4 -20 -10 -23 -6 -4 -7 5 -4 23 9 45
-10 46 -37 0 -13 -22 -39 -57 -56 -76 -28 -31 -33 -33 -33 -16 0 12 11 26 25
34 24 13 30 27 25 60 -4 26 -11 26 -32 -3 -19 -26 -21 -27 -34 -10 -19 25 -17
57 6 112 17 37 19 53 11 74 -12 31 -30 36 -33 10z m-50 -149 c-10 -10 -28 6
-28 24 0 15 1 15 17 -1 9 -9 14 -19 11 -23z m-58 -49 c7 -9 8 -15 2 -15 -5 0
-12 7 -16 15 -3 8 -4 15 -2 15 2 0 9 -7 16 -15z m-125 -25 c3 -6 -4 -10 -17
-10 -18 0 -20 2 -8 10 19 12 18 12 25 0z m35 -11 c0 -6 -4 -7 -10 -4 -5 3 -10
11 -10 16 0 6 5 7 10 4 6 -3 10 -11 10 -16z m82 -51 c-9 -9 -12 -7 -12 12 0
19 3 21 12 12 9 -9 9 -15 0 -24z m117 23 c12 -8 12 -13 -3 -35 -18 -28 -42
-36 -32 -10 3 9 6 24 6 35 0 21 8 23 29 10z m-155 -68 c-41 -29 -55 -44 -49
-53 7 -12 63 5 86 26 11 10 20 15 22 13 1 -2 11 -17 23 -34 39 -57 39 -55 -23
-51 -32 2 -70 10 -86 17 -15 7 -30 9 -34 6 -11 -11 30 -48 46 -42 10 3 8 -1
-4 -10 -11 -9 -31 -15 -45 -13 -23 3 -25 7 -22 46 3 39 -11 59 -21 30 -2 -7
-6 -1 -9 14 -4 24 -1 29 27 38 18 6 40 19 50 30 14 16 21 17 38 8 20 -10 20
-11 1 -25z m16 -23 c-24 -15 -36 -11 -14 4 10 8 21 12 24 10 2 -3 -2 -9 -10
-14z m-205 -110 c-3 -5 -14 -10 -23 -10 -15 0 -15 2 -2 10 20 13 33 13 25 0z
m180 -30 c-3 -5 -10 -10 -16 -10 -5 0 -9 5 -9 10 0 6 7 10 16 10 8 0 12 -4 9
-10z m-35 -30 c0 -5 -2 -10 -4 -10 -3 0 -8 5 -11 10 -3 6 -1 10 4 10 6 0 11
-4 11 -10z m207 -92 c-3 -8 -6 -5 -6 6 -1 11 2 17 5 13 3 -3 4 -12 1 -19z m72
0 c-37 -34 -49 -41 -49 -27 0 8 12 22 27 31 31 18 43 16 22 -4z m-82 -84 c-3
-31 -10 -61 -14 -65 -13 -13 -37 7 -27 22 5 8 9 16 10 19 10 56 18 80 27 80 6
0 8 -21 4 -56z m-167 -75 c-16 -28 -22 -19 -14 21 6 25 9 29 16 16 5 -10 5
-24 -2 -37z m192 19 c-7 -7 -12 -8 -12 -2 0 14 12 26 19 19 2 -3 -1 -11 -7
-17z m153 2 c3 -5 -3 -10 -14 -10 -12 0 -21 5 -21 10 0 6 6 10 14 10 8 0 18
-4 21 -10z m-95 -4 c0 -3 -4 -8 -10 -11 -5 -3 -10 -1 -10 4 0 6 5 11 10 11 6
0 10 -2 10 -4z m-50 -25 c-5 -11 -15 -23 -21 -27 -6 -3 -3 5 6 20 20 30 30 35
15 7z m-175 -10 c-3 -6 -11 -11 -17 -11 -6 0 -6 6 2 15 14 17 26 13 15 -4z
m35 0 c-11 -21 -30 -37 -30 -25 0 8 30 44 37 44 2 0 -1 -9 -7 -19z m50 16 c0
-2 -12 -14 -26 -28 l-27 -24 18 28 c14 22 35 36 35 24z m10 -32 c-7 -8 -17
-15 -23 -15 -5 0 -2 9 8 20 21 23 35 19 15 -5z m128 5 c-7 -11 -17 -20 -22
-20 -5 0 -1 9 9 20 10 11 20 20 22 20 2 0 -2 -9 -9 -20z m40 8 c-2 -6 -10 -14
-16 -16 -7 -2 -10 2 -6 12 7 18 28 22 22 4z m32 -9 c-7 -11 -14 -18 -17 -15
-8 8 5 36 17 36 7 0 7 -6 0 -21z m80 17 c0 -3 -4 -8 -10 -11 -5 -3 -10 -1 -10
4 0 6 5 11 10 11 6 0 10 -2 10 -4z m-192 -26 c-7 -11 -17 -20 -22 -20 -5 0 -1
9 9 20 10 11 20 20 22 20 2 0 -2 -9 -9 -20z"/>
<path d="M434 1339 c-19 -21 -19 -21 2 -18 21 4 124 -46 124 -60 0 -5 -11 -6
-25 -3 -18 3 -25 0 -25 -11 0 -23 27 -28 50 -9 14 11 19 23 15 34 -7 18 -98
88 -113 88 -5 0 -17 -9 -28 -21z"/>
<path d="M1002 1301 c-30 -54 -29 -65 8 -46 25 13 30 22 30 50 0 45 -11 44
-38 -4z"/>
<path d="M1097 1298 c-6 -22 8 -58 22 -58 14 0 21 42 10 62 -13 24 -25 23 -32
-4z"/>
<path d="M1453 1262 c-65 -38 -75 -57 -30 -57 14 0 29 -3 33 -7 24 -24 104 15
104 50 -1 20 -23 52 -36 52 -5 0 -37 -17 -71 -38z m77 -4 c0 -15 -55 -49 -64
-40 -9 8 35 52 51 52 7 0 13 -6 13 -12z"/>
<path d="M376 1254 c-30 -38 -27 -57 7 -49 14 4 39 -5 71 -25 37 -24 51 -28
60 -19 8 8 8 13 0 16 -6 2 -33 17 -59 34 -36 23 -46 34 -42 49 9 33 -8 31 -37
-6z"/>
<path d="M1535 1158 c-17 -4 -41 -17 -55 -27 -21 -17 -23 -23 -15 -48 8 -21
18 -29 42 -31 50 -5 100 21 108 57 3 17 4 35 1 40 -9 14 -48 18 -81 9z m65
-29 c0 -10 -46 -33 -93 -44 -44 -12 -31 11 21 33 53 24 72 27 72 11z"/>
<path d="M331 1136 c-6 -16 -10 -33 -9 -38 2 -6 34 -20 71 -33 l68 -24 9 25
c6 14 10 30 10 35 0 15 -17 10 -24 -7 -4 -9 -15 -14 -28 -12 -17 2 -22 9 -21
26 3 26 -12 29 -26 5 -12 -22 -28 -9 -33 27 l-4 25 -13 -29z"/>
<path d="M1175 1151 c-6 -5 -21 -11 -35 -13 -52 -7 -32 -80 26 -94 31 -8 45 4
21 17 -20 11 -23 39 -4 40 6 1 29 0 49 -1 31 -1 37 1 32 15 -6 15 -53 45 -72
45 -4 0 -12 -4 -17 -9z m50 -21 c3 -5 -1 -10 -9 -10 -9 0 -16 5 -16 10 0 6 4
10 9 10 6 0 13 -4 16 -10z m-58 -16 c-3 -3 -12 -4 -19 -1 -8 3 -5 6 6 6 11 1
17 -2 13 -5z"/>
<path d="M560 1057 c0 -13 5 -28 11 -34 7 -7 3 -12 -15 -17 -50 -12 -16 -52
36 -42 41 8 58 23 58 51 0 28 -10 38 -25 25 -8 -7 -15 -3 -23 15 -15 32 -42
33 -42 2z m40 -28 c0 -6 -4 -7 -10 -4 -5 3 -10 11 -10 16 0 6 5 7 10 4 6 -3
10 -11 10 -16z m-10 -43 c0 -11 -19 -15 -25 -6 -3 5 1 10 9 10 9 0 16 -2 16
-4z"/>
<path d="M1050 1065 c0 -18 31 -35 65 -35 l27 0 -30 25 c-33 28 -62 33 -62 10z"/>
<path d="M1272 1069 c-40 -12 -37 -33 4 -37 21 -2 36 4 54 23 l23 25 -24 -1
c-13 0 -39 -5 -57 -10z"/>
<path d="M289 1009 c-18 -34 7 -71 45 -67 26 2 32 8 34 32 3 26 6 28 35 22 17
-3 32 -8 35 -10 9 -9 -10 -26 -29 -26 -12 0 -19 -5 -16 -12 6 -19 48 -16 61 5
14 21 0 46 -37 67 -32 18 -60 5 -65 -29 -4 -23 -18 -27 -42 -11 -13 8 -11 11
8 16 12 4 22 13 22 20 0 22 -38 16 -51 -7z"/>
<path d="M1165 1010 c-8 -14 13 -40 32 -40 8 0 26 -13 40 -30 24 -29 56 -39
67 -21 6 9 -20 35 -46 44 -11 4 -15 12 -11 23 3 9 0 20 -8 25 -19 12 -66 11
-74 -1z m62 -16 c-3 -3 -12 -4 -19 -1 -8 3 -5 6 6 6 11 1 17 -2 13 -5z"/>
<path d="M1523 1010 c-40 -16 -26 -70 18 -70 5 0 9 5 9 10 0 6 -7 10 -15 10
-8 0 -15 4 -15 9 0 12 92 21 110 11 12 -7 9 -11 -15 -20 -22 -9 -26 -13 -15
-20 21 -13 50 7 50 35 0 14 -8 29 -19 35 -24 12 -78 12 -108 0z"/>
<path d="M1270 987 c0 -27 37 -50 67 -42 l28 7 -28 24 c-31 26 -67 32 -67 11z"/>
<path d="M1094 958 c-10 -16 26 -39 50 -32 33 10 43 24 26 34 -21 13 -67 12
-76 -2z"/>
<path d="M1635 896 c-3 -9 -7 -23 -10 -31 -4 -13 -10 -13 -47 2 -24 9 -49 21
-56 26 -17 13 -21 7 -24 -32 -3 -39 20 -56 29 -22 6 25 24 22 85 -12 21 -11
40 -19 42 -16 11 11 10 93 -1 96 -7 3 -15 -2 -18 -11z"/>
<path d="M322 893 c-25 -3 -32 -8 -28 -20 3 -8 6 -23 6 -34 0 -10 11 -26 25
-35 22 -14 32 -15 64 -6 21 7 46 21 56 32 16 18 17 23 5 45 -15 28 -60 35 -60
10 0 -8 9 -15 20 -15 33 0 22 -18 -17 -29 -47 -13 -73 -14 -73 -2 0 5 9 13 20
16 11 3 20 15 20 26 0 10 -1 18 -2 17 -2 0 -18 -3 -36 -5z"/>
<path d="M1215 821 c-7 -12 12 -24 25 -16 11 7 4 25 -10 25 -5 0 -11 -4 -15
-9z"/>
<path d="M454 794 c4 -26 1 -33 -20 -43 -32 -14 -34 -14 -34 4 0 8 -7 15 -15
15 -13 0 -14 -4 -5 -20 9 -17 8 -20 -9 -20 -10 0 -22 7 -25 16 -4 9 -9 14 -12
11 -5 -5 14 -77 20 -77 15 0 136 62 136 70 0 5 -9 24 -21 42 l-21 33 6 -31z"/>
<path d="M1477 740 c-3 -12 -14 -20 -26 -20 -22 0 -29 -24 -11 -35 6 -3 7 -17
4 -31 -6 -22 -3 -24 25 -24 17 0 31 -4 31 -10 0 -5 7 -10 15 -10 8 0 15 8 15
19 0 13 10 21 33 25 l32 7 -22 18 c-15 12 -20 25 -16 40 4 17 1 21 -21 21 -14
0 -26 5 -26 10 0 19 -28 10 -33 -10z m39 -35 c-4 -10 2 -19 17 -25 16 -6 17
-9 5 -9 -9 -1 -18 -5 -20 -11 -4 -12 -48 -1 -48 13 0 14 30 47 43 47 5 0 6 -7
3 -15z"/>
<path d="M404 655 c-16 -25 -12 -79 7 -90 5 -3 43 11 85 31 67 32 74 38 61 51
-12 12 -19 13 -37 3 -18 -10 -25 -8 -44 9 -29 28 -52 26 -72 -4z m71 -16 c8
-11 -22 -38 -42 -39 -19 0 -16 27 5 39 22 13 29 13 37 0z"/>
<path d="M1360 587 c0 -8 11 -24 25 -37 22 -21 23 -25 9 -33 -11 -6 -22 -3
-39 13 -21 20 -45 21 -45 1 0 -15 110 -102 121 -96 7 5 3 15 -11 30 -18 20
-19 23 -5 35 13 11 19 10 33 -4 22 -19 42 -21 42 -3 0 14 -103 107 -119 107
-6 0 -11 -6 -11 -13z"/>
<path d="M610 570 c-8 -5 -25 -7 -38 -3 -18 4 -24 1 -29 -15 -2 -11 -14 -23
-26 -26 -16 -4 -18 -8 -8 -20 7 -8 9 -25 5 -41 -6 -25 -5 -27 15 -20 17 5 30
0 47 -16 21 -20 26 -21 34 -9 5 8 10 20 10 26 0 6 11 16 25 22 29 13 31 24 10
42 -8 7 -15 23 -15 36 0 27 -11 36 -30 24z m6 -43 c12 -16 12 -46 -1 -51 -8
-3 -15 -12 -15 -21 0 -14 -3 -14 -25 2 -41 30 -31 89 14 78 14 -4 27 -7 27 -8z"/>
<path d="M1246 479 c-19 -19 -19 -19 5 -19 36 0 57 -16 41 -32 -19 -19 -14
-29 13 -22 27 7 35 -12 13 -34 -6 -6 -9 -15 -5 -18 9 -9 57 24 57 39 -1 14
-85 107 -97 106 -4 0 -17 -9 -27 -20z"/>
<path d="M691 441 c-13 -10 -21 -23 -17 -30 10 -16 36 -14 36 4 0 8 9 15 20
15 17 0 19 -4 14 -27 -11 -49 -29 -78 -49 -82 -17 -3 -18 -1 -5 14 12 14 12
18 -1 26 -33 21 -50 -1 -33 -45 7 -18 55 -22 84 -6 42 22 48 120 10 140 -25
13 -31 12 -59 -9z"/>
<path d="M1163 438 c-23 -11 -29 -28 -16 -41 3 -4 15 0 25 10 10 9 20 14 21
12 2 -2 16 -25 31 -51 15 -27 33 -48 41 -48 21 0 19 5 -21 71 -37 61 -44 65
-81 47z"/>
<path d="M810 410 c0 -12 6 -20 13 -19 29 4 37 -2 37 -27 0 -23 -3 -26 -25
-22 -30 6 -35 -18 -5 -27 22 -7 27 -30 8 -41 -6 -4 -17 1 -25 11 -13 18 -13
18 -28 -1 -19 -26 -19 -34 4 -34 10 0 32 -3 48 -6 l30 -6 11 69 c5 37 12 75
13 83 3 10 -5 16 -23 18 -16 2 -28 8 -28 13 0 5 -7 9 -15 9 -8 0 -15 -9 -15
-20z"/>
<path d="M941 394 c-23 -29 -23 -30 -15 -61 4 -14 15 -23 32 -25 17 -2 28 -10
30 -21 3 -16 -1 -18 -28 -12 -30 7 -32 6 -25 -16 4 -13 8 -25 9 -26 7 -9 61
15 72 33 19 28 5 61 -28 66 -27 4 -40 58 -15 58 18 0 39 -24 30 -33 -3 -4 1
-7 10 -7 31 0 18 39 -20 59 -29 15 -28 15 -52 -15z"/>
<path d="M1076 388 c11 -30 7 -97 -6 -113 -8 -9 -8 -15 0 -20 16 -10 40 14 40
41 0 29 5 30 37 4 43 -34 47 -9 5 29 -23 20 -42 45 -44 56 -2 11 -11 21 -22
23 -15 3 -17 0 -10 -20z"/>
</g>
</svg>
